<svg width="1600" height="500" viewBox="0 0 1600 500" fill="none" xmlns="http://www.w3.org/2000/svg" role="img" aria-labelledby="title desc">
  <title id="title">Schema Sentinel</title>
  <desc id="desc">Catch dataset drift before it breaks your pipeline.</desc>
  <defs>
    <linearGradient id="bg" x1="0" y1="0" x2="1600" y2="500" gradientUnits="userSpaceOnUse">
      <stop stop-color="#06111F"/>
      <stop offset="0.55" stop-color="#0F172A"/>
      <stop offset="1" stop-color="#1D4ED8"/>
    </linearGradient>
    <linearGradient id="panel" x1="80" y1="72" x2="1020" y2="428" gradientUnits="userSpaceOnUse">
      <stop stop-color="#FFFFFF" stop-opacity="0.08"/>
      <stop offset="1" stop-color="#FFFFFF" stop-opacity="0.04"/>
    </linearGradient>
    <linearGradient id="accent" x1="128" y1="112" x2="420" y2="176" gradientUnits="userSpaceOnUse">
      <stop stop-color="#38BDF8"/>
      <stop offset="1" stop-color="#2563EB"/>
    </linearGradient>
    <linearGradient id="chip" x1="0" y1="0" x2="1" y2="1">
      <stop stop-color="#0F172A"/>
      <stop offset="1" stop-color="#1E293B"/>
    </linearGradient>
    <filter id="shadow" x="-20%" y="-20%" width="140%" height="140%">
      <feDropShadow dx="0" dy="18" stdDeviation="20" flood-color="#000000" flood-opacity="0.32"/>
    </filter>
  </defs>

  <rect width="1600" height="500" rx="36" fill="url(#bg)"/>
  <circle cx="1380" cy="84" r="150" fill="#38BDF8" fill-opacity="0.08"/>
  <circle cx="1390" cy="92" r="230" fill="#60A5FA" fill-opacity="0.06"/>
  <circle cx="208" cy="410" r="180" fill="#38BDF8" fill-opacity="0.07"/>
  <circle cx="1180" cy="380" r="120" fill="#93C5FD" fill-opacity="0.07"/>

  <g opacity="0.12">
    <path d="M0 100H1600" stroke="white"/>
    <path d="M0 200H1600" stroke="white"/>
    <path d="M0 300H1600" stroke="white"/>
    <path d="M0 400H1600" stroke="white"/>
  </g>
  <g opacity="0.14">
    <path d="M120 0V500" stroke="white"/>
    <path d="M320 0V500" stroke="white"/>
    <path d="M520 0V500" stroke="white"/>
    <path d="M720 0V500" stroke="white"/>
    <path d="M920 0V500" stroke="white"/>
    <path d="M1120 0V500" stroke="white"/>
    <path d="M1320 0V500" stroke="white"/>
  </g>

  <g filter="url(#shadow)">
    <rect x="80" y="72" width="940" height="356" rx="32" fill="url(#panel)" stroke="#FFFFFF" stroke-opacity="0.12"/>
  </g>

  <rect x="128" y="112" width="220" height="38" rx="19" fill="url(#accent)"/>
  <text x="238" y="136" text-anchor="middle" fill="white" font-family="Inter, Segoe UI, Arial, sans-serif" font-size="14" font-weight="800" letter-spacing="1.4">
    CSV DRIFT DETECTOR
  </text>

  <text x="128" y="188" fill="#F8FAFC" font-family="Inter, Segoe UI, Arial, sans-serif" font-size="68" font-weight="900" letter-spacing="-2.4">
    Schema Sentinel
  </text>
  <text x="128" y="238" fill="#C7D2FE" font-family="Inter, Segoe UI, Arial, sans-serif" font-size="28" font-weight="600">
    Catch dataset drift before it breaks your pipeline.
  </text>
  <text x="128" y="278" fill="#E2E8F0" font-family="Inter, Segoe UI, Arial, sans-serif" font-size="18" font-weight="500">
    Compare old vs new snapshots, score risk, and export reports for humans or automation.
  </text>

  <g transform="translate(128 308)">
    <rect width="150" height="42" rx="21" fill="url(#chip)" stroke="#FFFFFF" stroke-opacity="0.08"/>
    <text x="75" y="27" text-anchor="middle" fill="#E2E8F0" font-family="Inter, Segoe UI, Arial, sans-serif" font-size="15" font-weight="700">COMPARE</text>

    <rect x="168" y="0" width="142" height="42" rx="21" fill="url(#chip)" stroke="#FFFFFF" stroke-opacity="0.08"/>
    <text x="239" y="27" text-anchor="middle" fill="#E2E8F0" font-family="Inter, Segoe UI, Arial, sans-serif" font-size="15" font-weight="700">SCORE</text>

    <rect x="328" y="0" width="152" height="42" rx="21" fill="url(#chip)" stroke="#FFFFFF" stroke-opacity="0.08"/>
    <text x="404" y="27" text-anchor="middle" fill="#E2E8F0" font-family="Inter, Segoe UI, Arial, sans-serif" font-size="15" font-weight="700">SHARE</text>
  </g>

  <g transform="translate(128 366)">
    <rect width="600" height="42" rx="14" fill="#020617" fill-opacity="0.78" stroke="#38BDF8" stroke-opacity="0.18"/>
    <text x="22" y="28" fill="#93C5FD" font-family="'SFMono-Regular', Consolas, 'Liberation Mono', Menlo, monospace" font-size="14" font-weight="700">
      python -m schema_sentinel compare old.csv new.csv
    </text>
  </g>

  <g filter="url(#shadow)">
    <rect x="1076" y="72" width="444" height="356" rx="30" fill="#F8FAFC"/>
  </g>

  <rect x="1112" y="106" width="110" height="34" rx="17" fill="#DBEAFE"/>
  <text x="1167" y="129" text-anchor="middle" fill="#1D4ED8" font-family="Inter, Segoe UI, Arial, sans-serif" font-size="13" font-weight="800" letter-spacing="1">
    REPORT
  </text>

  <text x="1112" y="194" fill="#0F172A" font-family="Inter, Segoe UI, Arial, sans-serif" font-size="52" font-weight="900" letter-spacing="-2.2">
    CRITICAL
  </text>
  <text x="1112" y="232" fill="#475569" font-family="Inter, Segoe UI, Arial, sans-serif" font-size="18" font-weight="600">
    stability score
  </text>
  <text x="1112" y="284" fill="#0F172A" font-family="Inter, Segoe UI, Arial, sans-serif" font-size="78" font-weight="900" letter-spacing="-4">
    36
  </text>
  <text x="1210" y="284" fill="#475569" font-family="Inter, Segoe UI, Arial, sans-serif" font-size="24" font-weight="700">
    / 100
  </text>

  <g transform="translate(1112 306)">
    <rect width="318" height="16" rx="8" fill="#E2E8F0"/>
    <rect width="214" height="16" rx="8" fill="#2563EB"/>
  </g>

  <g>
    <rect x="1112" y="338" width="132" height="54" rx="16" fill="#EFF6FF"/>
    <rect x="1258" y="338" width="132" height="54" rx="16" fill="#EFF6FF"/>
    <rect x="1404" y="338" width="80" height="54" rx="16" fill="#EFF6FF"/>
  </g>
  <g fill="#334155" font-family="Inter, Segoe UI, Arial, sans-serif">
    <text x="1130" y="360" font-size="12" font-weight="800">Added</text>
    <text x="1130" y="384" font-size="24" font-weight="900" fill="#1D4ED8">1</text>
    <text x="1276" y="360" font-size="12" font-weight="800">Removed</text>
    <text x="1276" y="384" font-size="24" font-weight="900" fill="#DC2626">1</text>
    <text x="1410" y="360" font-size="12" font-weight="800">Findings</text>
    <text x="1410" y="384" font-size="24" font-weight="900" fill="#0F172A">5</text>
  </g>

  <g transform="translate(1112 410)">
    <rect width="318" height="10" rx="5" fill="#E2E8F0"/>
    <rect width="86" height="10" rx="5" fill="#60A5FA"/>
    <rect x="100" width="60" height="10" rx="5" fill="#93C5FD"/>
    <rect x="174" width="112" height="10" rx="5" fill="#2563EB"/>
  </g>

  <text x="1112" y="442" fill="#475569" font-family="Inter, Segoe UI, Arial, sans-serif" font-size="14" font-weight="600">
    Markdown | HTML | JSON
  </text>
</svg>
